<?xml version="1.0" encoding="utf-8"?>
<!-- Generator: Adobe Illustrator 15.1.0, SVG Export Plug-In . SVG Version: 6.00 Build 0)  -->
<!DOCTYPE svg PUBLIC "-//W3C//DTD SVG 1.1//EN" "http://www.w3.org/Graphics/SVG/1.1/DTD/svg11.dtd">
<svg version="1.1" id="Layer_1" xmlns="http://www.w3.org/2000/svg" xmlns:xlink="http://www.w3.org/1999/xlink" x="0px" y="0px"
	 width="283.679px" height="241.417px" viewBox="0 0 283.679 241.417" enable-background="new 0 0 283.679 241.417"
	 xml:space="preserve">
<path opacity="0.5" fill="#A09634" d="M9.426,0.267l0.625,39.774c0,0,0.5,13.5,0,14.75s-2.25,12.625-4.25,16.375s-3.5,15-0.25,24
	s3.75,20.875,3.25,22.875s-4.875,49.125-4.875,51.875s-1.75,21.5-2.75,39c-0.057,0.998-2.25,17-0.5,17.25s0.75,5.5,0.75,6.5
	s7.5,8.75,9.25,8.75s15-2.75,17.25-3.75s25.75-9.25,26.75-9.25s8.5-3,11.25-6.25s15.5-18,20.75-18.25s15.5-3.75,19-8.75
	s23.75-22.25,38.25-27.25c0,0,5.75-2.75,2-9s-7.25-11.75-7.75-13s-4-19.25-0.25-24.5s21.25-22.25,21.25-22.25l98.75-82
	c0,0,24.75-16.299,25.75-16.899S9.426,0.267,9.426,0.267z"/>
</svg>
